{
  "source": "C:\\Users\\Peter\\Desktop\\stuff\\MIUN\\quantitative_research\\video_compression\\videos\\BVI-HD\\BVI-HD_CDVL_videos\\ORIG\\Bookcase_1920x1080_60fps.mp4",
  "output": "C:\\Users\\Peter\\Desktop\\stuff\\MIUN\\quantitative_research\\video_compression\\compressed_videos\\BVI-HD\\vp9\\2\\Bookcase_1920x1080_60fps_vp9.webm",
  "codec": "vp9",
  "ok": "Input #0, mov,mp4,m4a,3gp,3g2,mj2, from 'C:\\Users\\Peter\\Desktop\\stuff\\MIUN\\quantitative_research\\video_compression\\videos\\BVI-HD\\BVI-HD_CDVL_videos\\ORIG\\Bookcase_1920x1080_60fps.mp4':\n  Metadata:\n    major_brand     : isom\n    minor_version   : 512\n    compatible_brands: isomiso2avc1mp41\n    encoder         : Lavf54.28.101\n  Duration: 00:00:05.00, start: 0.000000, bitrate: 336321 kb/s\n  Stream #0:0[0x1](und): Video: h264 (High 4:4:4 Predictive) (avc1 / 0x31637661), yuv420p(progressive), 1920x1080, 336316 kb/s, 60 fps, 60 tbr, 60 tbn (default)\n    Metadata:\n      handler_name    : VideoHandler\n      vendor_id       : [0][0][0][0]\n[out#0/webm @ 00000275bd651580] Codec AVOption b:a (set bitrate (in bits/s)) has not been used for any stream. The most likely reason is either wrong type (e.g. a video option with no video streams) or that it is a private option of some decoder which was not actually used for any stream.\nStream mapping:\n  Stream #0:0 -> #0:0 (h264 (native) -> vp9 (libvpx-vp9))\nPress [q] to stop, [?] for help\n[libvpx-vp9 @ 00000275bdca05c0] v1.15.2-100-g40561f514\nOutput #0, webm, to 'C:\\Users\\Peter\\Desktop\\stuff\\MIUN\\quantitative_research\\video_compression\\compressed_videos\\BVI-HD\\vp9\\2\\Bookcase_1920x1080_60fps_vp9.webm':\n  Metadata:\n    major_brand     : isom\n    minor_version   : 512\n    compatible_brands: isomiso2avc1mp41\n    encoder         : Lavf62.3.100\n  Stream #0:0(und): Video: vp9, yuv420p(tv, progressive), 1920x1080, q=2-31, 2000 kb/s, 60 fps, 1k tbn (default)\n    Metadata:\n      encoder         : Lavc62.11.100 libvpx-vp9\n      handler_name    : VideoHandler\n      vendor_id       : [0][0][0][0]\n    Side data:\n      cpb: bitrate max/min/avg: 0/0/0 buffer size: 2000000 vbv_delay: N/A\nframe=    0 fps=0.0 q=0.0 size=       0KiB time=N/A bitrate=N/A speed=N/A elapsed=0:00:00.51    \nframe=    7 fps=6.6 q=43.0 size=       1KiB time=00:00:00.11 bitrate=  43.4kbits/s speed=0.11x elapsed=0:00:01.06    \nframe=   13 fps=8.2 q=32.0 size=       1KiB time=00:00:00.20 bitrate=  25.3kbits/s speed=0.126x elapsed=0:00:01.58    \nframe=   17 fps=7.7 q=38.0 size=       1KiB time=00:00:00.28 bitrate=  17.9kbits/s speed=0.128x elapsed=0:00:02.22    \nframe=   21 fps=7.5 q=38.0 size=       1KiB time=00:00:00.33 bitrate=  15.2kbits/s speed=0.118x elapsed=0:00:02.81    \nframe=   24 fps=7.1 q=40.0 size=       1KiB time=00:00:00.40 bitrate=  12.7kbits/s speed=0.118x elapsed=0:00:03.39    \nframe=   28 fps=7.1 q=38.0 size=       1KiB time=00:00:00.46 bitrate=  10.9kbits/s speed=0.118x elapsed=0:00:03.94    \nframe=   33 fps=7.3 q=40.0 size=       1KiB time=00:00:00.55 bitrate=   9.2kbits/s speed=0.121x elapsed=0:00:04.54    \nframe=   36 fps=7.1 q=39.0 size=       1KiB time=00:00:00.60 bitrate=   8.4kbits/s speed=0.119x elapsed=0:00:05.06    \nframe=   42 fps=7.5 q=37.0 size=       1KiB time=00:00:00.70 bitrate=   7.2kbits/s speed=0.126x elapsed=0:00:05.57    \nframe=   48 fps=7.9 q=39.0 size=       1KiB time=00:00:00.80 bitrate=   6.3kbits/s speed=0.131x elapsed=0:00:06.10    \nframe=   54 fps=8.1 q=33.0 size=       1KiB time=00:00:00.90 bitrate=   5.6kbits/s speed=0.135x elapsed=0:00:06.67    \nframe=   59 fps=8.2 q=38.0 size=       1KiB time=00:00:00.98 bitrate=   5.1kbits/s speed=0.137x elapsed=0:00:07.20    \nframe=   63 fps=8.1 q=32.0 size=       1KiB time=00:00:01.05 bitrate=   4.8kbits/s speed=0.135x elapsed=0:00:07.75    \nframe=   67 fps=8.1 q=33.0 size=       1KiB time=00:00:01.11 bitrate=   4.5kbits/s speed=0.134x elapsed=0:00:08.30    \nframe=   70 fps=7.9 q=35.0 size=       1KiB time=00:00:01.16 bitrate=   4.3kbits/s speed=0.132x elapsed=0:00:08.83    \nframe=   75 fps=8.0 q=32.0 size=       1KiB time=00:00:01.25 bitrate=   4.1kbits/s speed=0.133x elapsed=0:00:09.39    \nframe=   79 fps=7.9 q=35.0 size=       1KiB time=00:00:01.31 bitrate=   3.8kbits/s speed=0.132x elapsed=0:00:09.95    \nframe=   84 fps=8.0 q=40.0 size=       1KiB time=00:00:01.40 bitrate=   3.6kbits/s speed=0.133x elapsed=0:00:10.54    \nframe=   87 fps=7.8 q=34.0 size=       1KiB time=00:00:01.45 bitrate=   3.5kbits/s speed=0.13x elapsed=0:00:11.13    \nframe=   91 fps=7.8 q=35.0 size=       1KiB time=00:00:01.51 bitrate=   3.3kbits/s speed=0.129x elapsed=0:00:11.73    \nframe=   96 fps=7.8 q=39.0 size=       1KiB time=00:00:01.60 bitrate=   3.2kbits/s speed=0.13x elapsed=0:00:12.29    \nframe=  100 fps=7.8 q=33.0 size=       1KiB time=00:00:01.66 bitrate=   3.0kbits/s speed=0.13x elapsed=0:00:12.82    \nframe=  103 fps=7.7 q=35.0 size=       1KiB time=00:00:01.71 bitrate=   2.9kbits/s speed=0.128x elapsed=0:00:13.38    \nframe=  107 fps=7.7 q=38.0 size=       1KiB time=00:00:01.78 bitrate=   2.8kbits/s speed=0.128x elapsed=0:00:13.97    \nframe=  110 fps=7.6 q=40.0 size=       1KiB time=00:00:01.83 bitrate=   2.8kbits/s speed=0.126x elapsed=0:00:14.55    \nframe=  114 fps=7.5 q=46.0 size=       1KiB time=00:00:01.90 bitrate=   2.7kbits/s speed=0.126x elapsed=0:00:15.12    \nframe=  119 fps=7.6 q=34.0 size=       1KiB time=00:00:01.98 bitrate=   2.6kbits/s speed=0.127x elapsed=0:00:15.65    \nframe=  122 fps=7.5 q=33.0 size=       1KiB time=00:00:02.03 bitrate=   2.5kbits/s speed=0.126x elapsed=0:00:16.17    \nframe=  125 fps=7.5 q=39.0 size=       1KiB time=00:00:02.08 bitrate=   2.4kbits/s speed=0.125x elapsed=0:00:16.71    \nframe=  128 fps=7.4 q=31.0 size=       1KiB time=00:00:02.13 bitrate=   2.4kbits/s speed=0.123x elapsed=0:00:17.30    \nframe=  131 fps=7.3 q=30.0 size=     512KiB time=00:00:02.18 bitrate=1921.1kbits/s speed=0.122x elapsed=0:00:17.86    \nframe=  135 fps=7.3 q=33.0 size=     512KiB time=00:00:02.25 bitrate=1864.1kbits/s speed=0.122x elapsed=0:00:18.39    \nframe=  139 fps=7.3 q=37.0 size=     512KiB time=00:00:02.31 bitrate=1810.5kbits/s speed=0.122x elapsed=0:00:18.92    \nframe=  141 fps=7.3 q=39.0 size=     512KiB time=00:00:02.35 bitrate=1784.8kbits/s speed=0.121x elapsed=0:00:19.44    \nframe=  145 fps=7.3 q=44.0 size=     512KiB time=00:00:02.41 bitrate=1735.6kbits/s speed=0.121x elapsed=0:00:19.99    \nframe=  149 fps=7.3 q=42.0 size=     512KiB time=00:00:02.48 bitrate=1689.0kbits/s speed=0.121x elapsed=0:00:20.53    \nframe=  153 fps=7.3 q=34.0 size=     512KiB time=00:00:02.55 bitrate=1644.8kbits/s speed=0.121x elapsed=0:00:21.09    \nframe=  157 fps=7.2 q=35.0 size=     512KiB time=00:00:02.60 bitrate=1613.2kbits/s speed=0.12x elapsed=0:00:21.68    \nframe=  160 fps=7.2 q=39.0 size=     512KiB time=00:00:02.66 bitrate=1572.9kbits/s speed=0.12x elapsed=0:00:22.26    \nframe=  164 fps=7.2 q=30.0 size=     512KiB time=00:00:02.73 bitrate=1534.5kbits/s speed=0.12x elapsed=0:00:22.79    \nframe=  169 fps=7.2 q=41.0 size=     512KiB time=00:00:02.81 bitrate=1489.1kbits/s speed=0.121x elapsed=0:00:23.31    \nframe=  172 fps=7.2 q=42.0 size=     512KiB time=00:00:02.86 bitrate=1463.1kbits/s speed=0.12x elapsed=0:00:23.91    \nframe=  175 fps=7.2 q=47.0 size=     512KiB time=00:00:02.91 bitrate=1438.0kbits/s speed=0.119x elapsed=0:00:24.45    \nframe=  179 fps=7.2 q=48.0 size=     512KiB time=00:00:02.98 bitrate=1405.9kbits/s speed=0.119x elapsed=0:00:24.96    \nframe=  184 fps=7.2 q=40.0 size=     512KiB time=00:00:03.06 bitrate=1367.7kbits/s speed=0.12x elapsed=0:00:25.53    \nframe=  187 fps=7.2 q=51.0 size=     512KiB time=00:00:03.11 bitrate=1345.8kbits/s speed=0.119x elapsed=0:00:26.08    \nframe=  191 fps=7.2 q=38.0 size=     512KiB time=00:00:03.18 bitrate=1317.6kbits/s speed=0.12x elapsed=0:00:26.61    \nframe=  195 fps=7.2 q=50.0 size=     512KiB time=00:00:03.25 bitrate=1290.6kbits/s speed=0.12x elapsed=0:00:27.14    \nframe=  199 fps=7.2 q=52.0 size=     512KiB time=00:00:03.31 bitrate=1264.6kbits/s speed=0.12x elapsed=0:00:27.71    \nframe=  202 fps=7.1 q=44.0 size=     512KiB time=00:00:03.36 bitrate=1245.8kbits/s speed=0.119x elapsed=0:00:28.36    \nframe=  206 fps=7.1 q=39.0 size=     512KiB time=00:00:03.43 bitrate=1221.6kbits/s speed=0.119x elapsed=0:00:28.87    \nframe=  211 fps=7.2 q=39.0 size=     512KiB time=00:00:03.51 bitrate=1192.7kbits/s speed=0.12x elapsed=0:00:29.41    \nframe=  214 fps=7.1 q=36.0 size=     512KiB time=00:00:03.56 bitrate=1176.0kbits/s speed=0.119x elapsed=0:00:29.95    \nframe=  218 fps=7.1 q=43.0 size=     512KiB time=00:00:03.63 bitrate=1154.4kbits/s speed=0.119x elapsed=0:00:30.51    \nframe=  223 fps=7.2 q=47.0 size=     512KiB time=00:00:03.71 bitrate=1128.5kbits/s speed=0.12x elapsed=0:00:31.03    \nframe=  227 fps=7.2 q=40.0 size=     512KiB time=00:00:03.78 bitrate=1108.6kbits/s speed=0.12x elapsed=0:00:31.56    \nframe=  231 fps=7.2 q=38.0 size=     512KiB time=00:00:03.83 bitrate=1094.2kbits/s speed=0.119x elapsed=0:00:32.09    \nframe=  235 fps=7.2 q=37.0 size=     512KiB time=00:00:03.91 bitrate=1070.9kbits/s speed=0.12x elapsed=0:00:32.71    \nframe=  239 fps=7.2 q=35.0 size=     512KiB time=00:00:03.98 bitrate=1053.0kbits/s speed=0.12x elapsed=0:00:33.26    \nframe=  245 fps=7.2 q=40.0 size=     512KiB time=00:00:04.06 bitrate=1031.4kbits/s speed=0.12x elapsed=0:00:33.81    \nframe=  248 fps=7.2 q=36.0 size=     512KiB time=00:00:04.13 bitrate=1014.8kbits/s speed=0.12x elapsed=0:00:34.41    \nframe=  253 fps=7.2 q=44.0 size=     512KiB time=00:00:04.21 bitrate= 994.7kbits/s speed=0.121x elapsed=0:00:34.98    \nframe=  256 fps=7.2 q=44.0 size=     512KiB time=00:00:04.26 bitrate= 983.0kbits/s speed=0.12x elapsed=0:00:35.49    \nframe=  261 fps=7.2 q=37.0 size=    1024KiB time=00:00:04.33 bitrate=1935.8kbits/s speed=0.12x elapsed=0:00:36.08    \nframe=  265 fps=7.2 q=38.0 size=    1024KiB time=00:00:04.41 bitrate=1899.3kbits/s speed=0.121x elapsed=0:00:36.64    \nframe=  270 fps=7.3 q=42.0 size=    1024KiB time=00:00:04.50 bitrate=1864.1kbits/s speed=0.121x elapsed=0:00:37.18    \nframe=  274 fps=7.3 q=42.0 size=    1024KiB time=00:00:04.56 bitrate=1836.9kbits/s speed=0.121x elapsed=0:00:37.70    \nframe=  276 fps=7.2 q=45.0 size=    1024KiB time=00:00:04.60 bitrate=1823.6kbits/s speed=0.12x elapsed=0:00:38.24    \nframe=  276 fps=7.1 q=45.0 size=    1024KiB time=00:00:04.60 bitrate=1823.6kbits/s speed=0.119x elapsed=0:00:38.78    \nframe=  276 fps=7.0 q=45.0 size=    1024KiB time=00:00:04.60 bitrate=1823.6kbits/s speed=0.117x elapsed=0:00:39.34    \nframe=  276 fps=6.9 q=45.0 size=    1024KiB time=00:00:04.60 bitrate=1823.6kbits/s speed=0.115x elapsed=0:00:39.88    \nframe=  276 fps=6.8 q=45.0 size=    1024KiB time=00:00:04.60 bitrate=1823.6kbits/s speed=0.114x elapsed=0:00:40.44    \n[out#0/webm @ 00000275bd651580] video:1480KiB audio:0KiB subtitle:0KiB other streams:0KiB global headers:0KiB muxing overhead: 0.187763%\nframe=  300 fps=7.4 q=44.0 Lsize=    1482KiB time=00:00:05.00 bitrate=2428.9kbits/s speed=0.123x elapsed=0:00:40.62    \n",
  "seconds": 41.02900171279907,
  "probe_out": {}
}